<svg width="26" height="26" viewBox="0 0 26 26" fill="none" xmlns="http://www.w3.org/2000/svg">
<path d="M16.8727 13.7922L14.25 12.2786V6.75C14.25 6.41848 14.1183 6.10054 13.8839 5.86612C13.6495 5.6317 13.3315 5.5 13 5.5C12.6685 5.5 12.3505 5.6317 12.1161 5.86612C11.8817 6.10054 11.75 6.41848 11.75 6.75V13C11.7499 13.2195 11.8077 13.4351 11.9174 13.6251C12.0271 13.8152 12.1849 13.973 12.375 14.0828L15.6227 15.9578C15.7649 16.0399 15.9219 16.0933 16.0847 16.1148C16.2475 16.1363 16.413 16.1255 16.5716 16.083C16.7303 16.0405 16.879 15.9672 17.0093 15.8672C17.1396 15.7672 17.2489 15.6426 17.331 15.5003C17.4131 15.3581 17.4664 15.2011 17.4878 15.0382C17.5092 14.8754 17.4983 14.7099 17.4557 14.5513C17.4132 14.3927 17.3398 14.244 17.2397 14.1138C17.1397 13.9835 17.015 13.8743 16.8727 13.7922ZM13 0.5C10.5277 0.5 8.11099 1.23311 6.05538 2.60663C3.99976 3.98015 2.39761 5.93238 1.45151 8.21646C0.505416 10.5005 0.257874 13.0139 0.74019 15.4386C1.2225 17.8634 2.41301 20.0907 4.16117 21.8388C5.90933 23.587 8.13662 24.7775 10.5614 25.2598C12.9861 25.7421 15.4995 25.4946 17.7836 24.5485C20.0676 23.6024 22.0199 22.0002 23.3934 19.9446C24.7669 17.889 25.5 15.4723 25.5 13C25.4963 9.68593 24.1782 6.50864 21.8348 4.16524C19.4914 1.82183 16.3141 0.503686 13 0.5ZM13 23C11.0222 23 9.0888 22.4135 7.4443 21.3147C5.79981 20.2159 4.51809 18.6541 3.76121 16.8268C3.00433 14.9996 2.8063 12.9889 3.19215 11.0491C3.57801 9.10929 4.53041 7.32746 5.92894 5.92893C7.32746 4.53041 9.10929 3.578 11.0491 3.19215C12.9889 2.8063 14.9996 3.00433 16.8268 3.76121C18.6541 4.51808 20.2159 5.79981 21.3147 7.4443C22.4135 9.08879 23 11.0222 23 13C22.997 15.6512 21.9424 18.193 20.0677 20.0677C18.193 21.9424 15.6512 22.997 13 23Z" fill="#74BAA0"/>
</svg>
