<svg width="168" height="100" viewBox="0 0 168 100" fill="none" xmlns="http://www.w3.org/2000/svg">
<path d="M20 80.7C16 80.7 12.5333 79.8667 9.6 78.2C6.66667 76.5333 4.4 74.3333 2.8 71.6C1.26667 68.8 0.5 65.7667 0.5 62.5C0.5 59.4333 1.16667 56.4333 2.5 53.5C3.83333 50.5667 5.66667 47.9 8 45.5C10.4 43.0333 13.1667 41.0333 16.3 39.5C19.4333 37.9 22.8 36.9333 26.4 36.6C23.8 34.4667 21.8667 32 20.6 29.2C19.4 26.4 18.8 23.6 18.8 20.8C18.8 17.2667 19.6667 13.9333 21.4 10.8C23.2 7.6 25.6667 5.03333 28.8 3.1C31.9333 1.1 35.4667 0.0999959 39.4 0.0999959C43.1333 0.0999959 45.9667 1.03333 47.9 2.9C49.8333 4.76666 50.8 7.43333 50.8 10.9C50.8 13.3667 50.3667 15.7667 49.5 18.1C48.6333 20.4333 47.5667 22.3333 46.3 23.8C45.1 25.2667 43.9333 26 42.8 26C42.0667 26 41.3667 25.7 40.7 25.1C40.0333 24.4333 39.5 23.6667 39.1 22.8C41.4333 20.7333 43.4 18.5667 45 16.3C46.6667 13.9667 47.5 11.5 47.5 8.9C47.5 6.83333 46.9 5.23333 45.7 4.1C44.5 2.96666 42.7333 2.4 40.4 2.4C37.3333 2.4 34.7333 3.33333 32.6 5.2C30.4667 7 28.8333 9.43333 27.7 12.5C26.6333 15.5 26.1 18.8333 26.1 22.5C26.1 24.9 26.4667 27.5 27.2 30.3C27.9333 33.1 29.5 35.5333 31.9 37.6C27.4333 38.3333 23.5333 40.0333 20.2 42.7C16.9333 45.3667 14.3667 48.5 12.5 52.1C10.7 55.7 9.8 59.2667 9.8 62.8C9.8 65 10.2 67.2333 11 69.5C11.8667 71.7 13.2333 73.5333 15.1 75C16.9667 76.5333 19.4667 77.3 22.6 77.3C26.1333 77.3 29.6333 76.3 33.1 74.3C36.6333 72.3 39.8667 69.6667 42.8 66.4C45.7333 63.1333 48.0667 59.6 49.8 55.8L51.2 56.8C48.8667 61.3333 46.1333 65.4 43 69C39.8667 72.6 36.3667 75.4333 32.5 77.5C28.6333 79.6333 24.4667 80.7 20 80.7ZM52.5031 76.7C50.4365 76.7 48.7031 76 47.3031 74.6C45.8365 73.2667 45.1031 71.2 45.1031 68.4C45.1031 66 45.6365 63.4333 46.7031 60.7C47.7698 57.9 49.2365 55.1667 51.1031 52.5C52.9698 49.7667 55.0698 47.3 57.4031 45.1C59.8031 42.8333 62.3031 41.0333 64.9031 39.7C67.5698 38.3667 70.2031 37.7 72.8031 37.7C75.4031 37.7 77.5698 38.4 79.3031 39.8C81.0365 41.1333 81.9031 42.9333 81.9031 45.2C81.9031 46.8667 81.4365 48 80.5031 48.6C79.6365 49.2 78.4698 49.5 77.0031 49.5C77.1365 48.9667 77.2365 48.4 77.3031 47.8C77.4365 47.1333 77.5031 46.5333 77.5031 46C77.5031 44.4667 77.1365 43.1667 76.4031 42.1C75.6698 40.9667 74.4031 40.4 72.6031 40.4C70.7365 40.4 68.8365 41.0667 66.9031 42.4C64.9698 43.6667 63.1031 45.4 61.3031 47.6C59.5031 49.7333 57.9031 52.0667 56.5031 54.6C55.1031 57.1333 54.0031 59.6333 53.2031 62.1C52.4031 64.5667 52.0031 66.7667 52.0031 68.7C52.0031 71.3 52.9031 72.6 54.7031 72.6C56.2365 72.6 57.9031 71.9 59.7031 70.5C61.5031 69.0333 63.3365 67.2 65.2031 65C67.1365 62.7333 68.9698 60.4 70.7031 58C72.4365 55.6 73.9698 53.4 75.3031 51.4C75.5698 51 75.7365 50.8 75.8031 50.8C76.2031 50.8667 76.7031 51 77.3031 51.2C77.9698 51.4 78.5365 51.6667 79.0031 52C79.4698 52.3333 79.7031 52.7667 79.7031 53.3C79.7031 53.9 79.4031 54.7333 78.8031 55.8C78.2031 56.8 77.5365 57.9667 76.8031 59.3C76.0698 60.6333 75.4031 62 74.8031 63.4C74.2031 64.7333 73.9031 66 73.9031 67.2C73.9031 68.2 74.1698 69.2 74.7031 70.2C75.2365 71.1333 76.1031 71.6 77.3031 71.6C79.1031 71.6 81.4698 70.3 84.4031 67.7C87.3365 65.0333 90.3031 61.0667 93.3031 55.8L94.3031 56.8C92.9031 60.4 91.1031 63.5667 88.9031 66.3C86.7031 69.0333 84.3365 71.1667 81.8031 72.7C79.3365 74.2333 76.9031 75 74.5031 75C72.0365 75 70.2031 74.2667 69.0031 72.8C67.8698 71.3333 67.3031 69.7333 67.3031 68C67.3031 67.6 67.3365 67.1667 67.4031 66.7C67.4698 66.1667 67.5365 65.6333 67.6031 65.1C64.7365 68.9667 62.1031 71.8667 59.7031 73.8C57.3698 75.7333 54.9698 76.7 52.5031 76.7ZM101.758 77.1C98.6245 77.1 96.1245 76.4 94.2578 75C92.4578 73.6667 91.1911 72 90.4578 70C89.6578 68 89.2578 66 89.2578 64C89.2578 62 89.5245 60.4667 90.0578 59.4C90.5911 58.3333 91.2245 57.5333 91.9578 57C92.7578 56.4667 93.4911 56.0667 94.1578 55.8C94.8911 55.5333 95.3911 55.2667 95.6578 55C97.6578 52.8 99.4911 50.5 101.158 48.1C102.824 45.7 104.291 43.1667 105.558 40.5V39.3C105.558 36.8333 105.958 35.1 106.758 34.1C107.624 33.0333 108.524 32.5 109.458 32.5C109.991 32.5 110.391 32.6333 110.658 32.9C110.924 33.1667 111.058 33.4667 111.058 33.8C111.058 34.1333 110.958 34.6667 110.758 35.4C110.558 36.1333 110.458 37.0667 110.458 38.2C110.458 40.4 110.891 42.8 111.758 45.4C112.624 47.9333 113.491 50.6333 114.358 53.5C115.224 56.3 115.658 59.2333 115.658 62.3C115.658 63.1667 115.591 64.0333 115.458 64.9C115.391 65.7 115.258 66.4667 115.058 67.2C117.391 66.8 119.591 65.7667 121.658 64.1C123.724 62.3667 125.724 59.6333 127.658 55.9L128.558 56.9C127.291 60.5667 125.391 63.3667 122.858 65.3C120.324 67.1667 117.558 68.3333 114.558 68.8C113.491 71.6667 111.791 73.7667 109.458 75.1C107.191 76.4333 104.624 77.1 101.758 77.1ZM101.958 73.6C102.758 73.6 103.824 73.3333 105.158 72.8C106.491 72.2667 107.524 70.9 108.258 68.7C105.458 68.1667 102.958 67.0667 100.758 65.4C98.6245 63.7333 97.0245 62.0667 95.9578 60.4C94.4911 60.4667 93.7578 61.6333 93.7578 63.9C93.7578 66.3 94.4578 68.5333 95.8578 70.6C97.3245 72.6 99.3578 73.6 101.958 73.6ZM108.758 67.1C108.891 66.4333 108.991 65.7333 109.058 65C109.124 64.2667 109.158 63.4 109.158 62.4C109.158 59.2667 108.758 56.1667 107.958 53.1C107.224 49.9667 106.591 47.0333 106.058 44.3C104.524 46.8333 102.891 49.2667 101.158 51.6C99.4911 53.8667 97.8911 55.7667 96.3578 57.3C97.3578 59.4333 98.8911 61.4333 100.958 63.3C103.091 65.1667 105.691 66.4333 108.758 67.1ZM130.03 100C128.364 100 126.897 99.5333 125.63 98.6C124.364 97.7333 123.73 96.4333 123.73 94.7C123.73 92.5667 124.264 90.6667 125.33 89C126.397 87.3333 127.83 85.8 129.63 84.4C131.43 83 133.497 81.6667 135.83 80.4C138.164 79.1333 140.597 77.8667 143.13 76.6C144.064 74.1333 144.997 71.4 145.93 68.4C146.93 65.3333 147.864 61.9667 148.73 58.3C146.597 61.7667 144.297 64.7667 141.83 67.3C139.43 69.7667 136.864 71 134.13 71C132.864 71 131.597 70.7333 130.33 70.2C129.13 69.6 128.13 68.7 127.33 67.5C126.53 66.3 126.13 64.7667 126.13 62.9C126.13 61.0333 126.43 58.8667 127.03 56.4C127.697 53.9333 128.497 51.5333 129.43 49.2C130.364 46.8667 131.33 44.9333 132.33 43.4C133.33 41.8667 134.197 41.1 134.93 41.1C135.197 41.1 135.664 41.2 136.33 41.4C137.064 41.6 137.73 41.9 138.33 42.3C138.997 42.6333 139.33 43 139.33 43.4C138.73 44.2667 138.064 45.5 137.33 47.1C136.597 48.7 135.864 50.5 135.13 52.5C134.464 54.4333 133.897 56.3333 133.43 58.2C132.964 60.0667 132.73 61.6667 132.73 63C132.73 64.2 132.997 65.1667 133.53 65.9C134.064 66.6333 134.997 67 136.33 67C137.597 67 138.997 66.4 140.53 65.2C142.13 63.9333 143.697 62.3333 145.23 60.4C146.83 58.4667 148.297 56.4 149.63 54.2C149.83 53.4667 149.997 52.7333 150.13 52C150.33 51.2 150.497 50.4 150.63 49.6C150.83 48.6667 151.297 47.6 152.03 46.4C152.83 45.1333 154.064 44.5 155.73 44.5C156.064 44.5 156.397 44.5333 156.73 44.6C157.064 44.6 157.43 44.6667 157.83 44.8C157.83 45.8667 157.497 47.8667 156.83 50.8C156.23 53.6667 155.33 57.0333 154.13 60.9C152.997 64.7667 151.63 68.7333 150.03 72.8C153.164 71.6 156.23 69.6333 159.23 66.9C162.23 64.1 164.664 60.4 166.53 55.8L167.83 56.8C166.83 60 165.297 62.8 163.23 65.2C161.23 67.5333 158.964 69.5667 156.43 71.3C153.897 72.9667 151.397 74.3667 148.93 75.5C147.197 79.7667 145.297 83.7667 143.23 87.5C141.23 91.2333 139.097 94.2333 136.83 96.5C134.63 98.8333 132.364 100 130.03 100ZM129.53 96.8C130.53 96.8 132.197 95.4667 134.53 92.8C136.93 90.2 139.464 85.6 142.13 79C139.397 80.4667 136.864 81.9 134.53 83.3C132.197 84.7667 130.33 86.3333 128.93 88C127.53 89.6667 126.83 91.6 126.83 93.8C126.83 94.3333 127.03 94.9667 127.43 95.7C127.83 96.4333 128.53 96.8 129.53 96.8Z" fill="#74BAA0"/>
</svg>
