<svg width="42" height="42" viewBox="0 0 42 42" fill="none" xmlns="http://www.w3.org/2000/svg">
<path d="M20.9881 0.166504C16.8677 0.166504 12.8398 1.38836 9.41375 3.67755C5.98772 5.96675 3.31746 9.22047 1.74064 13.0273C0.163812 16.8341 -0.248758 21.0229 0.555101 25.0642C1.35896 29.1055 3.34314 32.8176 6.25674 35.7312C9.17033 38.6448 12.8825 40.629 16.9237 41.4329C20.965 42.2367 25.1539 41.8242 28.9607 40.2473C32.7675 38.6705 36.0212 36.0002 38.3104 32.5742C40.5996 29.1482 41.8215 25.1203 41.8215 20.9998C41.8217 18.2639 41.283 15.5547 40.2361 13.027C39.1892 10.4993 37.6546 8.20254 35.72 6.26794C33.7854 4.33334 31.4887 2.79878 28.961 1.75188C26.4333 0.704992 23.7241 0.166277 20.9881 0.166504ZM27.6121 31.7341C27.5341 31.9286 27.4155 32.1041 27.2641 32.2489C27.1128 32.3938 26.9322 32.5046 26.7345 32.5739C26.5368 32.6433 26.3266 32.6696 26.1179 32.651C25.9093 32.6325 25.707 32.5695 25.5246 32.4664L19.869 28.0719L16.2392 31.4207C16.155 31.4829 16.0565 31.5229 15.9527 31.5371C15.8489 31.5513 15.7433 31.5392 15.6455 31.5018L16.3413 25.2758L16.3636 25.2935L16.3778 25.1706C16.3778 25.1706 26.5549 15.9049 26.9695 15.5102C27.3892 15.1164 27.2507 15.031 27.2507 15.031C27.2746 14.5507 26.4975 15.031 26.4975 15.031L13.0131 23.7061L7.39752 21.7936C7.39752 21.7936 6.53502 21.4842 6.45377 20.804C6.36836 20.129 7.42563 19.7623 7.42563 19.7623L29.7527 10.8925C29.7527 10.8925 31.5881 10.0748 31.5881 11.429L27.6121 31.7341Z" fill="#74BAA0"/>
</svg>
