<svg width="42" height="42" viewBox="0 0 42 42" fill="none" xmlns="http://www.w3.org/2000/svg">
<path d="M27.4019 0.166504H14.6198C2.94436 0.166504 0.166626 2.94423 0.166626 14.5979V27.38C0.166626 39.0553 2.92275 41.8332 14.598 41.8332H27.3802C39.0556 41.8332 41.8333 39.077 41.8333 27.4017V14.6196C41.8333 2.94423 39.0772 0.166504 27.4019 0.166504ZM33.8037 29.8974H30.7656C29.6155 29.8974 29.2682 28.9642 27.2066 26.9026C25.4053 25.1665 24.6458 24.9494 24.1901 24.9494C23.5608 24.9494 23.3871 25.123 23.3871 25.9911V28.7255C23.3871 29.4634 23.1484 29.8974 21.217 29.8974C19.3428 29.7714 17.5254 29.2021 15.9143 28.2362C14.3032 27.2703 12.9447 25.9355 11.9505 24.3418C9.59029 21.4041 7.9481 17.9562 7.15452 14.2724C7.15452 13.8166 7.32808 13.4043 8.19619 13.4043H11.2343C12.0156 13.4043 12.2978 13.7515 12.6015 14.5545C14.0772 18.8948 16.5946 22.6708 17.6145 22.6708C18.0052 22.6708 18.1787 22.4972 18.1787 21.5207V17.0501C18.0485 15.0103 16.9635 14.8366 16.9635 14.0988C16.9778 13.9041 17.0674 13.7227 17.2132 13.5931C17.3591 13.4634 17.5498 13.3957 17.7448 13.4043H22.5191C23.1701 13.4043 23.3871 13.7298 23.3871 14.511V20.5441C23.3871 21.1952 23.6692 21.4121 23.8645 21.4121C24.2552 21.4121 24.5589 21.1952 25.2751 20.479C26.814 18.6023 28.0714 16.5115 29.0078 14.2724C29.1033 14.0029 29.2845 13.7722 29.5236 13.6155C29.7626 13.4587 30.0464 13.3845 30.3316 13.4043H33.3698C34.2812 13.4043 34.4765 13.86 34.2812 14.511C33.1757 16.9867 31.808 19.3367 30.2014 21.5207C29.8759 22.0198 29.7457 22.2802 30.2014 22.8661C30.5052 23.3218 31.5686 24.2116 32.2847 25.0579C33.3264 26.097 34.1913 27.2992 34.8454 28.617C35.1058 29.4634 34.6718 29.8974 33.8037 29.8974Z" fill="#74BAA0"/>
</svg>
