<svg width="42" height="42" viewBox="0 0 42 42" fill="none" xmlns="http://www.w3.org/2000/svg">
<path d="M41.8333 9.64567C41.8099 8.74686 41.7403 7.84985 41.625 6.95817C41.4694 6.17718 41.2102 5.42048 40.8541 4.70817C40.4818 3.93547 39.9817 3.23114 39.375 2.62484C38.7626 2.02526 38.0596 1.52607 37.2916 1.14567C36.5784 0.796596 35.8217 0.544365 35.0416 0.39567C34.1584 0.263378 33.2678 0.186837 32.375 0.166504H9.64579C8.74699 0.189913 7.84997 0.259449 6.95829 0.374837C6.1773 0.530396 5.4206 0.789636 4.70829 1.14567C3.9356 1.51804 3.23126 2.01811 2.62496 2.62484C2.02539 3.23715 1.52619 3.94024 1.14579 4.70817C0.796718 5.42143 0.544487 6.17812 0.395792 6.95817C0.2635 7.84137 0.18696 8.73202 0.166626 9.62484C0.166626 10.0207 0.166626 10.5832 0.166626 10.7498V31.2498C0.166626 31.479 0.166626 31.979 0.166626 32.354C0.190035 33.2528 0.259571 34.1498 0.374959 35.0415C0.530518 35.8225 0.789758 36.5792 1.14579 37.2915C1.51816 38.0642 2.01824 38.7685 2.62496 39.3748C3.23727 39.9744 3.94036 40.4736 4.70829 40.854C5.42155 41.2031 6.17824 41.4553 6.95829 41.604C7.84149 41.7363 8.73214 41.8128 9.62496 41.8332H32.3541C33.2529 41.8098 34.15 41.7402 35.0416 41.6248C35.8226 41.4693 36.5793 41.21 37.2916 40.854C38.0643 40.4816 38.7687 39.9816 39.375 39.3748C39.9745 38.7625 40.4737 38.0594 40.8541 37.2915C41.2032 36.5782 41.4554 35.8216 41.6041 35.0415C41.7364 34.1583 41.813 33.2677 41.8333 32.3748C41.8333 31.979 41.8333 31.479 41.8333 31.2498V10.7498C41.8333 10.5832 41.8333 10.0207 41.8333 9.64567ZM21.4791 35.5832C18.9772 35.5708 16.519 34.9258 14.3333 33.7082L6.41663 35.7915L8.49996 28.0415C7.15645 25.7841 6.43743 23.21 6.41663 20.5832C6.42492 17.6309 7.30663 14.7472 8.95071 12.2951C10.5948 9.84296 12.9277 7.93219 15.6556 6.80341C18.3836 5.67463 21.3845 5.37832 24.2806 5.95179C27.1766 6.52527 29.8381 7.94288 31.93 10.0261C34.0219 12.1093 35.4506 14.765 36.0361 17.6586C36.6216 20.5522 36.3378 23.5543 35.2204 26.2869C34.1029 29.0195 32.2019 31.3604 29.7566 33.0146C27.3114 34.6689 24.4313 35.5626 21.4791 35.5832ZM21.4791 8.229C19.2704 8.25428 17.1078 8.86439 15.2115 9.99721C13.3153 11.13 11.753 12.7451 10.6839 14.678C9.61478 16.6109 9.07694 18.7926 9.12514 21.0009C9.17333 23.2093 9.80585 25.3654 10.9583 27.2498L11.25 27.729L9.99996 32.2915L14.75 30.9998L15.2083 31.2707C17.1032 32.3868 19.2591 32.9833 21.4583 32.9998C24.7735 32.9998 27.9529 31.6829 30.2971 29.3387C32.6413 26.9945 33.9583 23.815 33.9583 20.4998C33.9583 17.1846 32.6413 14.0052 30.2971 11.661C27.9529 9.3168 24.7735 7.99984 21.4583 7.99984L21.4791 8.229ZM28.7708 25.979C28.4979 26.4341 28.1326 26.8269 27.6983 27.132C27.2641 27.437 26.7707 27.6475 26.25 27.7498C25.4719 27.892 24.6709 27.842 23.9166 27.604C23.2069 27.3821 22.5112 27.1178 21.8333 26.8123C19.2578 25.52 17.0613 23.5819 15.4583 21.1873C14.5872 20.0779 14.0587 18.7385 13.9375 17.3332C13.9251 16.7494 14.0355 16.1695 14.2616 15.6312C14.4877 15.0928 14.8244 14.608 15.25 14.2082C15.3753 14.0661 15.5291 13.9518 15.7013 13.8729C15.8736 13.7939 16.0605 13.752 16.25 13.7498H16.8333C17.0625 13.7498 17.375 13.7498 17.6666 14.3957C17.9583 15.0415 18.7291 16.979 18.8333 17.1665C18.8845 17.2664 18.9112 17.3771 18.9112 17.4894C18.9112 17.6017 18.8845 17.7124 18.8333 17.8123C18.7412 18.0387 18.6147 18.2495 18.4583 18.4373C18.2708 18.6665 18.0625 18.9373 17.8958 19.104C17.7291 19.2707 17.5208 19.479 17.7291 19.854C18.296 20.8106 18.9976 21.6807 19.8125 22.4373C20.6998 23.2214 21.7143 23.8485 22.8125 24.2915C23.1875 24.479 23.4166 24.4582 23.625 24.2915C23.8333 24.1248 24.5625 23.2082 24.8125 22.8332C25.0625 22.4582 25.3125 22.5207 25.6458 22.6457C25.9791 22.7707 27.8333 23.6665 28.2083 23.854C28.5833 24.0415 28.8125 24.1248 28.9166 24.2915C29.007 24.8368 28.9568 25.396 28.7708 25.9165V25.979Z" fill="#74BAA0"/>
</svg>
